# This file uses centimeters as units for non-parametric coordinates.

mtllib techo2.mtl
g default
v -0.500000 -1.250000 7.900000
v 0.000000 -1.250000 7.900000
v -0.500000 1.250000 7.900000
v 0.000000 1.250000 7.900000
v -0.500000 1.250000 -6.100002
v 0.000000 1.250000 -6.100002
v -0.500000 -1.250000 -6.100002
v 0.000000 -1.250000 -6.100002
vt 0.161716 -0.026626
vt -1.362673 0.271534
vt 0.000000 -0.000000
vt 1.000000 -0.000000
vt 1.000000 1.000000
vt 0.000000 1.000000
vt 0.000000 1.000000
vt 1.000000 1.000000
vt 1.000000 -0.000000
vt 0.000000 -0.000000
vt 2.362673 0.271534
vt 2.362673 0.728466
vt 2.372227 0.266252
vt -1.372227 0.266252
vt -1.372227 0.733748
vt 2.372227 0.733748
vt 0.838284 -0.026626
vt 0.838284 1.026625
vt 0.161716 1.026625
vt -1.362673 0.728466
vt 0.000000 1.000000
vt 1.000000 1.000000
vt 1.000000 0.000000
vt 0.000000 0.000000
vn 0.000000 0.000000 1.000000
vn 0.000000 0.000000 1.000000
vn 0.000000 0.000000 1.000000
vn 0.000000 0.000000 1.000000
vn 0.000000 1.000000 0.000000
vn 0.000000 1.000000 0.000000
vn 0.000000 1.000000 0.000000
vn 0.000000 1.000000 0.000000
vn 0.000000 0.000000 -1.000000
vn 0.000000 0.000000 -1.000000
vn 0.000000 0.000000 -1.000000
vn 0.000000 0.000000 -1.000000
vn 0.000000 -1.000000 0.000000
vn 0.000000 -1.000000 0.000000
vn 0.000000 -1.000000 0.000000
vn 0.000000 -1.000000 0.000000
vn 1.000000 0.000000 0.000000
vn 1.000000 0.000000 0.000000
vn 1.000000 0.000000 0.000000
vn 1.000000 0.000000 0.000000
vn -1.000000 0.000000 0.000000
vn -1.000000 0.000000 0.000000
vn -1.000000 0.000000 0.000000
vn -1.000000 0.000000 0.000000
s off
g techo2
usemtl lambert20SG
f 1/1/1 2/17/2 4/18/3 3/19/4
f 3/3/5 4/4/6 6/5/7 5/6/8
f 5/21/9 6/22/10 8/23/11 7/24/12
f 7/7/13 8/8/14 2/9/15 1/10/16
f 2/2/17 8/11/18 6/12/19 4/20/20
f 7/13/21 1/14/22 3/15/23 5/16/24
