# This file uses centimeters as units for non-parametric coordinates.

mtllib pasto.mtl
g default
v 5.000000 -0.002500 -6.000000
v 7.000000 -0.002500 -6.000000
v 7.000000 0.002500 -6.000000
v 5.000000 0.002500 -6.000000
v 7.000000 0.002500 -6.100000
v 7.000000 -0.002500 -6.100000
v 7.000000 0.002500 -5.950000
v 7.000000 -0.002500 -5.950000
v 7.000000 -0.002500 6.000000
v 7.000000 0.002500 6.000000
v -7.000000 -0.002500 6.000000
v -7.000000 0.002500 6.000000
v 14.000000 -0.002500 16.000000
v 14.000000 -0.002500 -24.000000
v 14.000000 0.002500 -24.000000
v 14.000000 0.002500 16.000000
v -14.000000 -0.002500 16.000000
v -14.000000 0.002500 16.000000
v 5.000000 0.002500 -6.100000
v 5.000000 -0.002500 -6.000000
v 5.000000 -0.002500 -6.100000
v -7.000000 0.002500 -6.000000
v -5.000000 0.002500 -6.000000
v 3.000000 0.002500 -6.100000
v 3.000000 0.002500 -6.000000
v 3.000000 -0.002500 -6.000000
v 3.000000 -0.002500 -6.000000
v 3.000000 -0.002500 -6.100000
v 7.000000 -0.002500 -18.049999
v 7.000000 0.002500 -18.049999
v -5.000000 0.002500 -6.100000
v -5.000000 -0.002500 -6.000000
v -7.000000 -0.002500 -6.000000
v -5.000000 -0.002500 -6.100000
v 7.000000 0.002500 -18.100000
v 7.000000 -0.002500 -18.100000
v -5.000000 0.002500 -18.049999
v -5.000000 -0.002500 -18.049999
v -5.000000 0.002500 -18.100000
v -5.000000 -0.002500 -18.100000
v -14.000000 -0.002500 -24.000000
v -14.000000 0.002500 -24.000000
vt 0.589286 0.625125
vt 0.625000 0.625125
vt 0.625000 0.624875
vt 0.589286 0.624875
vt 0.626033 0.124375
vt 0.626033 0.125625
vt 0.628099 0.125625
vt 0.628099 0.124375
vt 0.873958 0.125125
vt 0.875000 0.125125
vt 0.875000 0.124875
vt 0.873958 0.124875
vt -1.048306 2.048306
vt -1.048306 0.198080
vt -1.048306 0.190339
vt -4.913383 -0.582677
vt -4.913383 -0.555610
vt -4.913383 5.913385
vt 0.625000 0.124875
vt 0.375000 0.124875
vt 0.375000 0.125125
vt 0.625000 0.125125
vt 0.625000 0.000000
vt 0.875000 0.000000
vt 0.875000 0.250000
vt 0.625000 0.250000
vt 0.375000 0.000000
vt 0.375000 0.250000
vt -4.913383 -0.636811
vt -3.366703 -0.636811
vt -3.366702 -0.582677
vt -0.605933 0.190339
vt -0.605933 0.174856
vt -1.048306 0.174856
vt 0.625000 0.124875
vt 0.583333 0.124875
vt 0.583333 0.125125
vt 0.625000 0.125125
vt -1.048306 0.190339
vt -1.048306 0.190339
vt 0.750000 0.125625
vt 0.775000 0.125625
vt 0.775000 0.124375
vt 0.750000 0.124375
vt 0.750000 0.124375
vt 5.913383 -0.582677
vt 5.913383 -0.582677
vt 5.913383 -0.582677
vt 0.225000 0.125625
vt 0.250000 0.125625
vt 0.250000 0.124375
vt 0.250000 0.124375
vt 0.225000 0.124375
vt 0.873958 0.124875
vt 0.873958 0.125125
vt 4.366703 -0.636811
vt 4.366703 -0.582677
vt 1.605933 0.190339
vt 2.048306 0.190339
vt 1.605933 0.174856
vt 0.410714 0.625125
vt 0.553571 0.625125
vt 0.553571 0.624875
vt 0.410714 0.624875
vt 0.125000 0.124875
vt 0.125000 0.125125
vt -1.820021 -0.636811
vt -1.820021 -0.582677
vt 0.541667 0.124875
vt 0.375000 0.124875
vt 0.375000 0.125125
vt 0.541667 0.125125
vt -1.048306 0.190339
vt -1.048306 0.190339
vt -1.048306 0.190339
vt -1.048306 0.190339
vt -0.163559 0.190339
vt -0.163559 0.174856
vt 0.875000 0.125125
vt 0.875000 0.124875
vt 0.375000 0.624875
vt 0.375000 0.625125
vt 0.126042 0.125125
vt 0.126042 0.124875
vt 0.625000 0.624875
vt 0.375000 0.624875
vt 0.375000 0.625125
vt 0.625000 0.625125
vt 0.125000 0.000000
vt 0.125000 0.250000
vt 0.125000 0.124875
vt 0.125000 0.125125
vt 0.375000 0.500000
vt 0.625000 0.500000
vt 0.625000 0.750000
vt 0.375000 0.750000
vt -10.326767 11.326769
vt -10.326767 -10.326769
vt 11.326767 -10.326769
vt 4.366703 -7.132873
vt -4.913383 -7.132873
vt -4.913383 -7.105805
vt -1.048306 -1.675370
vt -1.048306 -1.683112
vt 1.605933 -1.683112
vt 3.596612 -2.596613
vt -2.596612 -2.596613
vt -2.596612 3.596613
vt 11.326767 11.326769
vt 5.913383 5.913384
vt 4.366703 -7.105805
vt 3.596612 3.596613
vt 1.605933 -1.675370
vt 2.048306 2.048306
vn 0.000000 0.000000 1.000000
vn 0.000000 0.000000 1.000000
vn 0.000000 0.000000 1.000000
vn 0.000000 0.000000 1.000000
vn -1.000000 0.000000 0.000000
vn -1.000000 0.000000 0.000000
vn -1.000000 0.000000 0.000000
vn -1.000000 0.000000 0.000000
vn -1.000000 0.000000 0.000000
vn -1.000000 0.000000 0.000000
vn -1.000000 0.000000 0.000000
vn -1.000000 0.000000 0.000000
vn 0.000000 0.000000 0.000000
vn 0.000000 0.000000 0.000000
vn 0.000000 0.000000 0.000000
vn 0.000000 0.000000 0.000000
vn 0.000000 0.000000 0.000000
vn 0.000000 0.000000 0.000000
vn 0.000000 0.000000 -1.000000
vn 0.000000 0.000000 -1.000000
vn 0.000000 0.000000 -1.000000
vn 0.000000 0.000000 -1.000000
vn -1.000000 0.000000 0.000000
vn -1.000000 0.000000 0.000000
vn 1.000000 0.000000 0.000000
vn 1.000000 0.000000 0.000000
vn 1.000000 0.000000 0.000000
vn 1.000000 0.000000 0.000000
vn 0.000000 0.000000 1.000000
vn 0.000000 0.000000 1.000000
vn 0.000000 0.000000 1.000000
vn 0.000000 0.000000 1.000000
vn 0.000000 1.000000 0.000000
vn 0.000000 1.000000 0.000000
vn 0.000000 1.000000 0.000000
vn 0.000000 1.000000 0.000000
vn 0.000000 -1.000000 0.000000
vn 0.000000 -1.000000 0.000000
vn 0.000000 -1.000000 0.000000
vn 0.000000 -1.000000 0.000000
vn 0.000000 0.000000 -1.000000
vn 0.000000 0.000000 -1.000000
vn 0.000000 0.000000 -1.000000
vn 0.000000 0.000000 -1.000000
vn 0.000000 0.000000 0.000000
vn 0.000000 0.000000 0.000000
vn 0.000000 0.000000 0.000000
vn -1.000000 0.000000 0.000000
vn -1.000000 0.000000 0.000000
vn -1.000000 0.000000 0.000000
vn -0.000000 0.000000 0.000000
vn -0.000000 0.000000 0.000000
vn 0.000000 0.000000 0.000000
vn 0.000000 0.000000 1.000000
vn 0.000000 0.000000 0.000000
vn 1.000000 0.000000 0.000000
vn 1.000000 0.000000 0.000000
vn 0.000000 0.000000 0.000000
vn 0.000000 0.000000 0.000000
vn 1.000000 0.000000 0.000000
vn -1.000000 0.000000 0.000000
vn -1.000000 0.000000 0.000000
vn -1.000000 0.000000 0.000000
vn -1.000000 0.000000 0.000000
vn 0.000000 1.000000 -0.000000
vn 0.000000 1.000000 -0.000000
vn 0.000000 1.000000 0.000000
vn 0.000000 -1.000000 0.000000
vn 0.000000 -1.000000 0.000000
vn 0.000000 -1.000000 0.000000
vn 0.000000 0.000000 1.000000
vn 0.000000 0.000000 1.000000
vn 0.000000 0.000000 1.000000
vn 0.000000 0.000000 1.000000
vn 1.000000 0.000000 0.000000
vn 1.000000 0.000000 0.000000
vn 1.000000 0.000000 0.000000
vn 1.000000 0.000000 0.000000
vn 0.000000 1.000000 0.000000
vn 0.000000 1.000000 0.000000
vn 0.000000 0.000000 -1.000000
vn 0.000000 0.000000 -1.000000
vn 0.000000 0.000000 -1.000000
vn 0.000000 0.000000 -1.000000
vn 0.000000 0.000000 0.000000
vn 0.000000 0.000000 1.000000
vn 0.000000 0.000000 0.000000
vn 0.000000 -1.000000 0.000000
vn 0.000000 -1.000000 0.000000
vn 0.000000 -1.000000 0.000000
vn 0.000000 -1.000000 0.000000
vn -1.000000 0.000000 0.000000
vn -1.000000 0.000000 0.000000
vn 0.000000 0.000000 1.000000
vn 1.000000 0.000000 0.000000
vn 1.000000 0.000000 0.000000
vn 1.000000 0.000000 0.000000
vn 1.000000 0.000000 0.000000
vn 0.000000 0.000000 1.000000
vn 0.000000 0.000000 1.000000
vn 0.000000 0.000000 1.000000
vn 0.000000 0.000000 1.000000
vn -1.000000 0.000000 0.000000
vn -1.000000 0.000000 0.000000
vn -1.000000 0.000000 0.000000
vn -1.000000 0.000000 0.000000
vn 1.000000 0.000000 0.000000
vn 1.000000 0.000000 0.000000
vn 0.000000 0.000000 -1.000000
vn 0.000000 0.000000 -1.000000
vn 0.000000 0.000000 -1.000000
vn 0.000000 0.000000 -1.000000
vn 0.000000 1.000000 0.000000
vn 0.000000 1.000000 0.000000
vn 0.000000 1.000000 0.000000
vn 0.000000 1.000000 0.000000
vn 0.000000 1.000000 0.000000
vn 0.000000 1.000000 0.000000
vn 0.000000 1.000000 0.000000
vn 0.000000 -1.000000 0.000000
vn 0.000000 -1.000000 0.000000
vn 0.000000 -1.000000 0.000000
vn 0.000000 -1.000000 0.000000
vn 0.000000 -1.000000 0.000000
vn 0.000000 -1.000000 0.000000
vn 0.000000 1.000000 -0.000000
vn 0.000000 1.000000 -0.000000
vn 0.000000 1.000000 -0.000000
vn 0.000000 -1.000000 0.000000
vn 0.000000 -1.000000 0.000000
vn 0.000000 -1.000000 0.000000
vn 0.000000 -1.000000 0.000000
s off
g pasto3
usemtl initialShadingGroup
f 1/1/1 2/2/2 3/3/3 4/4/4
f 2/5/5 3/6/6 5/7/7 6/8/8
s 1
f 7/9/9 3/10/10 2/11/11 8/12/12
s off
usemtl lambert43SG
f 9/13/13 8/14/14 2/15/15
f 3/16/16 7/17/17 10/18/18
usemtl initialShadingGroup
f 9/19/19 11/20/20 12/21/21 10/22/22
s 1
f 8/12/12 9/19/23 10/22/24 7/9/9
s off
usemtl lambert43SG
f 13/23/25 14/24/26 15/25/27 16/26/28
f 17/27/29 13/23/30 16/26/31 18/28/32
f 5/29/33 19/30/34 4/31/35 3/16/36
f 2/15/37 20/32/38 21/33/39 6/34/40
usemtl initialShadingGroup
f 6/35/41 21/36/42 19/37/43 5/38/44
usemtl lambert43SG
f 2/15/45 1/39/46 20/40/47
usemtl initialShadingGroup
f 4/41/48 19/42/49 21/43/50 20/44/51 1/45/52
usemtl lambert43SG
f 22/46/53 23/47/54 3/48/55
usemtl initialShadingGroup
f 24/49/56 25/50/57 26/51/58 27/52/59 28/53/60
s 2
f 29/54/61 6/35/62 5/38/63 30/55/64
s 3
usemtl lambert43SG
f 31/56/65 22/46/66 23/57/67
s off
f 32/58/68 33/59/69 34/60/70
s 4
usemtl initialShadingGroup
f 32/61/71 26/62/72 25/63/73 23/64/74
s off
f 11/20/75 33/65/76 22/66/77 12/21/78
s 3
usemtl lambert43SG
f 24/67/79 31/56/65 23/57/67 25/68/80
s off
usemtl initialShadingGroup
f 28/69/81 34/70/82 31/71/83 24/72/84
usemtl lambert43SG
f 26/73/85 32/74/71 33/75/86 27/76/87
f 27/77/88 33/59/89 34/60/90 28/78/91
s 2
usemtl initialShadingGroup
f 30/55/64 35/79/92 36/80/93 29/54/61
s 4
f 23/64/74 22/81/94 33/82/86 32/61/71
s 5
f 37/83/95 31/71/96 34/70/97 38/84/98
s off
f 35/85/99 39/86/100 40/87/101 36/88/102
usemtl lambert43SG
f 41/89/103 17/27/104 18/28/105 42/90/106
s 5
usemtl initialShadingGroup
f 38/84/98 40/91/107 39/92/108 37/83/95
s off
usemtl lambert43SG
f 42/93/109 15/94/110 14/95/111 41/96/112
s 3
f 16/97/113 15/98/114 42/99/115 39/100/116 35/101/117 30/102/118 5/29/33 3/16/36 10/18/119
s 6
f 2/15/37 6/34/40 29/103/120 36/104/121 40/105/122 41/106/123 14/107/124 13/108/125
s 3
f 18/109/126 16/97/113 10/18/119 12/110/127 22/46/66 31/56/65 37/111/128 39/100/116 42/99/115
s 6
f 2/15/37 13/108/125 17/112/129 41/106/123 40/105/122 38/113/130 34/60/90 33/59/89 11/114/131 9/13/132
