# This file uses centimeters as units for non-parametric coordinates.

mtllib Piso_casa.mtl
g default
v -5.000000 -0.005000 -5.967742
v 7.000002 -0.005000 -5.967742
v -5.000000 0.005000 -5.967742
v 7.000002 0.005000 -5.967742
v -5.000000 0.005000 -17.967743
v 7.000002 0.005000 -17.967743
v -5.000000 -0.005000 -17.967743
v 7.000002 -0.005000 -17.967743
v -7.000000 -0.015000 6.000000
v 7.000000 -0.015000 6.000000
v -7.000000 0.015000 6.000000
v 7.000000 0.015000 6.000000
v -7.000000 0.015000 -6.000000
v 7.000000 0.015000 -6.000000
v -7.000000 -0.015000 -6.000000
v 7.000000 -0.015000 -6.000000
vt 0.375000 0.000000
vt 0.625000 0.000000
vt 0.625000 0.250000
vt 0.375000 0.250000
vt -1.404157 -1.404157
vt 2.404157 -1.404157
vt 2.404157 2.404157
vt -1.404157 2.404157
vt 0.375000 0.500000
vt 0.625000 0.500000
vt 0.625000 0.750000
vt 0.375000 0.750000
vt -1.108545 2.108545
vt 2.108545 2.108545
vt 2.108545 -1.108545
vt -1.108545 -1.108545
vt 0.875000 0.000000
vt 0.875000 0.250000
vt 0.125000 0.000000
vt 0.125000 0.250000
vt 0.375000 0.000000
vt 0.625000 0.000000
vt 0.625000 0.250000
vt 0.375000 0.250000
vt -1.515011 -1.515012
vt 2.515011 -1.515012
vt 2.515011 2.515012
vt -1.515011 2.515012
vt 0.375000 0.500000
vt 0.625000 0.500000
vt 0.625000 0.750000
vt 0.375000 0.750000
vt 0.000000 1.000000
vt 1.000000 1.000000
vt 1.000000 0.000000
vt 0.000000 0.000000
vt 0.875000 0.000000
vt 0.875000 0.250000
vt 0.125000 0.000000
vt 0.125000 0.250000
vn 0.000000 0.000000 1.000000
vn 0.000000 0.000000 1.000000
vn 0.000000 0.000000 1.000000
vn 0.000000 0.000000 1.000000
vn 0.000000 1.000000 0.000000
vn 0.000000 1.000000 0.000000
vn 0.000000 1.000000 0.000000
vn 0.000000 1.000000 0.000000
vn 0.000000 0.000000 -1.000000
vn 0.000000 0.000000 -1.000000
vn 0.000000 0.000000 -1.000000
vn 0.000000 0.000000 -1.000000
vn 0.000000 -1.000000 0.000000
vn 0.000000 -1.000000 0.000000
vn 0.000000 -1.000000 0.000000
vn 0.000000 -1.000000 0.000000
vn 1.000000 0.000000 0.000000
vn 1.000000 0.000000 0.000000
vn 1.000000 0.000000 0.000000
vn 1.000000 0.000000 0.000000
vn -1.000000 0.000000 0.000000
vn -1.000000 0.000000 0.000000
vn -1.000000 0.000000 0.000000
vn -1.000000 0.000000 0.000000
vn 0.000000 0.000000 1.000000
vn 0.000000 0.000000 1.000000
vn 0.000000 0.000000 1.000000
vn 0.000000 0.000000 1.000000
vn 0.000000 1.000000 0.000000
vn 0.000000 1.000000 0.000000
vn 0.000000 1.000000 0.000000
vn 0.000000 1.000000 0.000000
vn 0.000000 0.000000 -1.000000
vn 0.000000 0.000000 -1.000000
vn 0.000000 0.000000 -1.000000
vn 0.000000 0.000000 -1.000000
vn 0.000000 -1.000000 0.000000
vn 0.000000 -1.000000 0.000000
vn 0.000000 -1.000000 0.000000
vn 0.000000 -1.000000 0.000000
vn 1.000000 0.000000 0.000000
vn 1.000000 0.000000 0.000000
vn 1.000000 0.000000 0.000000
vn 1.000000 0.000000 0.000000
vn -1.000000 0.000000 0.000000
vn -1.000000 0.000000 0.000000
vn -1.000000 0.000000 0.000000
vn -1.000000 0.000000 0.000000
s off
g polySurface39
usemtl lambert16SG
f 1/1/1 2/2/2 4/3/3 3/4/4
f 3/5/5 4/6/6 6/7/7 5/8/8
f 5/9/9 6/10/10 8/11/11 7/12/12
f 7/13/13 8/14/14 2/15/15 1/16/16
f 2/2/17 8/17/18 6/18/19 4/3/20
f 7/19/21 1/1/22 3/4/23 5/20/24
f 9/21/25 10/22/26 12/23/27 11/24/28
f 11/25/29 12/26/30 14/27/31 13/28/32
f 13/29/33 14/30/34 16/31/35 15/32/36
f 15/33/37 16/34/38 10/35/39 9/36/40
f 10/22/41 16/37/42 14/38/43 12/23/44
f 15/39/45 9/21/46 11/24/47 13/40/48
